<svg width="40" height="40" viewBox="0 0 40 40" fill="none" xmlns="http://www.w3.org/2000/svg">
<path fill-rule="evenodd" clip-rule="evenodd" d="M37 20C37 29.3888 29.3888 37 20 37C10.6112 37 3 29.3888 3 20C3 10.6112 10.6112 3 20 3C29.3888 3 37 10.6112 37 20ZM38 20C38 29.9411 29.9411 38 20 38C10.0589 38 2 29.9411 2 20C2 10.0589 10.0589 2 20 2C29.9411 2 38 10.0589 38 20ZM29.4908 11.0954C29.5258 10.9154 29.4595 10.7307 29.3179 10.6141C29.1764 10.4975 28.9824 10.4677 28.8124 10.5365L7.8124 19.0365C7.62055 19.1142 7.49637 19.302 7.50008 19.509C7.50379 19.7159 7.63461 19.8992 7.82913 19.9699L13.0953 21.8849L15.0221 28.147C15.0707 28.305 15.1942 28.4287 15.352 28.4776C15.5098 28.5265 15.6816 28.4943 15.811 28.3915L19.6171 25.368L25.2073 29.4053C25.3456 29.5052 25.5252 29.5277 25.6839 29.465C25.8425 29.4022 25.9582 29.2629 25.9908 29.0954L29.4908 11.0954ZM15.3749 25.8931L14.0909 21.7203L21.5013 17.0888L16.1567 22.1365C16.0792 22.2097 16.0271 22.3057 16.0081 22.4106L15.3749 25.8931ZM18.775 24.7598L16.2297 26.7818L16.8501 23.3696L18.775 24.7598ZM19.8955 24.3355L17.2827 22.4485L25.8433 14.3635C26.0301 14.1871 26.0528 13.8977 25.8957 13.6943C25.7386 13.491 25.4529 13.4398 25.235 13.576L13.4417 20.9468L9.39438 19.475L28.3333 11.8093L25.1585 28.1366L19.8955 24.3355Z" fill="#3A3A3E"/>
</svg>
