<svg width="82" height="83" viewBox="0 0 82 83" fill="none" xmlns="http://www.w3.org/2000/svg">
<g filter="url(#filter0_dd_420_3414)">
<rect x="11" y="7.27686" width="60" height="60" rx="12" fill="#3A3A3E"/>
<path d="M25.3262 48.3026V45.5589C25.3262 44.7853 25.5264 44.1201 25.927 43.5635C26.3276 43.0071 26.8659 42.5624 27.542 42.2293C28.9878 41.541 30.4233 40.9922 31.8483 40.5831C33.2735 40.1739 34.9884 39.9693 36.9928 39.9693C38.997 39.9693 40.7117 40.1739 42.137 40.5831C43.5623 40.9922 44.9977 41.541 46.4433 42.2293C47.1194 42.5624 47.6577 43.0071 48.0583 43.5635C48.4591 44.1201 48.6595 44.7853 48.6595 45.5589V48.3026H25.3262ZM51.9928 48.3026V45.4818C51.9928 44.516 51.7973 43.6043 51.4062 42.7468C51.0153 41.8893 50.4609 41.1536 49.7428 40.5397C50.5612 40.7064 51.3496 40.9376 52.1083 41.2335C52.8666 41.5296 53.6166 41.8624 54.3583 42.2318C55.0805 42.5951 55.6467 43.06 56.057 43.6264C56.467 44.1931 56.672 44.8115 56.672 45.4818V48.3026H51.9928ZM36.9928 36.251C35.6178 36.251 34.4408 35.7614 33.4616 34.7822C32.4824 33.8031 31.9928 32.626 31.9928 31.251C31.9928 29.876 32.4824 28.6989 33.4616 27.7197C34.4408 26.7406 35.6178 26.251 36.9928 26.251C38.3678 26.251 39.5449 26.7406 40.5241 27.7197C41.5033 28.6989 41.9928 29.876 41.9928 31.251C41.9928 32.626 41.5033 33.8031 40.5241 34.7822C39.5449 35.7614 38.3678 36.251 36.9928 36.251ZM49.1083 31.251C49.1083 32.626 48.6187 33.8031 47.6395 34.7822C46.6603 35.7614 45.4833 36.251 44.1083 36.251C44.0377 36.251 43.9478 36.2431 43.8387 36.2272C43.7298 36.2111 43.6401 36.1935 43.5695 36.1743C44.1342 35.4826 44.5681 34.7154 44.8712 33.8726C45.1745 33.0299 45.3262 32.1547 45.3262 31.2472C45.3262 30.3397 45.1674 29.4725 44.8499 28.6456C44.5327 27.8186 44.1059 27.0461 43.5695 26.3281C43.6592 26.2961 43.7489 26.2753 43.8387 26.2656C43.9284 26.2558 44.0183 26.251 44.1083 26.251C45.4833 26.251 46.6603 26.7406 47.6395 27.7197C48.6187 28.6989 49.1083 29.876 49.1083 31.251ZM26.9928 46.636H46.9928V45.5589C46.9928 45.1678 46.8951 44.8258 46.6995 44.5331C46.504 44.2406 46.153 43.9607 45.6466 43.6935C44.403 43.029 43.092 42.52 41.7137 42.1664C40.3356 41.8128 38.762 41.636 36.9928 41.636C35.2234 41.636 33.6496 41.8128 32.2716 42.1664C30.8933 42.52 29.5823 43.029 28.3387 43.6935C27.8323 43.9607 27.4813 44.2406 27.2858 44.5331C27.0905 44.8258 26.9928 45.1678 26.9928 45.5589V46.636ZM36.9928 34.5843C37.9095 34.5843 38.6942 34.2579 39.347 33.6051C39.9998 32.9524 40.3262 32.1676 40.3262 31.251C40.3262 30.3343 39.9998 29.5496 39.347 28.8968C38.6942 28.244 37.9095 27.9176 36.9928 27.9176C36.0762 27.9176 35.2914 28.244 34.6387 28.8968C33.9859 29.5496 33.6595 30.3343 33.6595 31.251C33.6595 32.1676 33.9859 32.9524 34.6387 33.6051C35.2914 34.2579 36.0762 34.5843 36.9928 34.5843Z" fill="#E3E3F1"/>
</g>
<defs>
<filter id="filter0_dd_420_3414" x="0" y="0.276855" width="82" height="82" filterUnits="userSpaceOnUse" color-interpolation-filters="sRGB">
<feFlood flood-opacity="0" result="BackgroundImageFix"/>
<feColorMatrix in="SourceAlpha" type="matrix" values="0 0 0 0 0 0 0 0 0 0 0 0 0 0 0 0 0 0 127 0" result="hardAlpha"/>
<feOffset dy="1"/>
<feGaussianBlur stdDeviation="1.5"/>
<feColorMatrix type="matrix" values="0 0 0 0 0 0 0 0 0 0 0 0 0 0 0 0 0 0 0.3 0"/>
<feBlend mode="normal" in2="BackgroundImageFix" result="effect1_dropShadow_420_3414"/>
<feColorMatrix in="SourceAlpha" type="matrix" values="0 0 0 0 0 0 0 0 0 0 0 0 0 0 0 0 0 0 127 0" result="hardAlpha"/>
<feMorphology radius="3" operator="dilate" in="SourceAlpha" result="effect2_dropShadow_420_3414"/>
<feOffset dy="4"/>
<feGaussianBlur stdDeviation="4"/>
<feColorMatrix type="matrix" values="0 0 0 0 0 0 0 0 0 0 0 0 0 0 0 0 0 0 0.15 0"/>
<feBlend mode="normal" in2="effect1_dropShadow_420_3414" result="effect2_dropShadow_420_3414"/>
<feBlend mode="normal" in="SourceGraphic" in2="effect2_dropShadow_420_3414" result="shape"/>
</filter>
</defs>
</svg>
