<svg width="82" height="83" viewBox="0 0 82 83" fill="none" xmlns="http://www.w3.org/2000/svg">
<g filter="url(#filter0_dd_420_3422)">
<rect x="11" y="7.27686" width="60" height="60" rx="12" fill="#3A3A3E"/>
<path d="M43.4992 37.9817C42.559 37.9817 41.7684 37.6613 41.1276 37.0205C40.4865 36.3794 40.1659 35.5887 40.1659 34.6484C40.1659 33.7084 40.4865 32.9178 41.1276 32.2767C41.7684 31.6356 42.559 31.315 43.4992 31.315C44.4395 31.315 45.2301 31.6356 45.8709 32.2767C46.512 32.9178 46.8326 33.7084 46.8326 34.6484C46.8326 35.5887 46.512 36.3794 45.8709 37.0205C45.2301 37.6613 44.4395 37.9817 43.4992 37.9817ZM33.1788 43.3025C32.4383 43.3025 31.8044 43.0388 31.2772 42.5113C30.7499 41.9841 30.4863 41.3503 30.4863 40.61V28.6871C30.4863 27.9466 30.7499 27.3127 31.2772 26.7855C31.8044 26.2582 32.4383 25.9946 33.1788 25.9946H53.8197C54.5602 25.9946 55.1941 26.2582 55.7213 26.7855C56.2486 27.3127 56.5122 27.9466 56.5122 28.6871V40.61C56.5122 41.3503 56.2486 41.9841 55.7213 42.5113C55.1941 43.0388 54.5602 43.3025 53.8197 43.3025H33.1788ZM34.8455 41.6359H52.153C52.153 40.89 52.4166 40.2548 52.9438 39.73C53.4711 39.2056 54.1049 38.9434 54.8455 38.9434V30.3538C54.0997 30.3538 53.4645 30.0902 52.9401 29.563C52.4154 29.0355 52.153 28.4016 52.153 27.6613H34.8455C34.8455 28.4071 34.5819 29.0423 34.0547 29.5667C33.5274 30.0914 32.8936 30.3538 32.153 30.3538V38.9434C32.8988 38.9434 33.534 39.207 34.0584 39.7342C34.5831 40.2614 34.8455 40.8953 34.8455 41.6359ZM51.5763 48.3025H28.1788C27.4383 48.3025 26.8044 48.0388 26.2772 47.5113C25.7499 46.9841 25.4863 46.3503 25.4863 45.61V30.9305H27.153V45.61C27.153 45.8664 27.2598 46.1014 27.4734 46.315C27.6873 46.5289 27.9224 46.6359 28.1788 46.6359H51.5763V48.3025ZM33.1788 41.6359H32.153V27.6613H33.1788C32.9011 27.6613 32.6606 27.7628 32.4576 27.9659C32.2545 28.1689 32.153 28.4094 32.153 28.6871V40.61C32.153 40.8878 32.2545 41.1282 32.4576 41.3313C32.6606 41.5344 32.9011 41.6359 33.1788 41.6359Z" fill="#E3E3F1"/>
</g>
<defs>
<filter id="filter0_dd_420_3422" x="0" y="0.276855" width="82" height="82" filterUnits="userSpaceOnUse" color-interpolation-filters="sRGB">
<feFlood flood-opacity="0" result="BackgroundImageFix"/>
<feColorMatrix in="SourceAlpha" type="matrix" values="0 0 0 0 0 0 0 0 0 0 0 0 0 0 0 0 0 0 127 0" result="hardAlpha"/>
<feOffset dy="1"/>
<feGaussianBlur stdDeviation="1.5"/>
<feColorMatrix type="matrix" values="0 0 0 0 0 0 0 0 0 0 0 0 0 0 0 0 0 0 0.3 0"/>
<feBlend mode="normal" in2="BackgroundImageFix" result="effect1_dropShadow_420_3422"/>
<feColorMatrix in="SourceAlpha" type="matrix" values="0 0 0 0 0 0 0 0 0 0 0 0 0 0 0 0 0 0 127 0" result="hardAlpha"/>
<feMorphology radius="3" operator="dilate" in="SourceAlpha" result="effect2_dropShadow_420_3422"/>
<feOffset dy="4"/>
<feGaussianBlur stdDeviation="4"/>
<feColorMatrix type="matrix" values="0 0 0 0 0 0 0 0 0 0 0 0 0 0 0 0 0 0 0.15 0"/>
<feBlend mode="normal" in2="effect1_dropShadow_420_3422" result="effect2_dropShadow_420_3422"/>
<feBlend mode="normal" in="SourceGraphic" in2="effect2_dropShadow_420_3422" result="shape"/>
</filter>
</defs>
</svg>
