<svg width="82" height="83" viewBox="0 0 82 83" fill="none" xmlns="http://www.w3.org/2000/svg">
<g filter="url(#filter0_dd_420_3426)">
<rect x="11" y="7.27686" width="60" height="60" rx="12" fill="#3A3A3E"/>
<path d="M30.3585 50.61C29.5913 50.61 28.9507 50.3531 28.4368 49.8392C27.923 49.3253 27.666 48.6847 27.666 47.9175V26.6359C27.666 25.8686 27.923 25.2281 28.4368 24.7142C28.9507 24.2003 29.5913 23.9434 30.3585 23.9434H41.0314V25.61H30.3585C30.1018 25.61 29.8667 25.7168 29.6531 25.9304C29.4395 26.1441 29.3327 26.3792 29.3327 26.6359V47.9175C29.3327 48.1742 29.4395 48.4093 29.6531 48.6229C29.8667 48.8366 30.1018 48.9434 30.3585 48.9434H41.0314V50.61H30.3585ZM48.4352 43.1742L47.2652 41.9754L51.1306 38.11H36.3198V36.4434H51.1306L47.2652 32.5779L48.4352 31.3792L54.3327 37.2767L48.4352 43.1742Z" fill="#E3E3F1"/>
</g>
<defs>
<filter id="filter0_dd_420_3426" x="0" y="0.276855" width="82" height="82" filterUnits="userSpaceOnUse" color-interpolation-filters="sRGB">
<feFlood flood-opacity="0" result="BackgroundImageFix"/>
<feColorMatrix in="SourceAlpha" type="matrix" values="0 0 0 0 0 0 0 0 0 0 0 0 0 0 0 0 0 0 127 0" result="hardAlpha"/>
<feOffset dy="1"/>
<feGaussianBlur stdDeviation="1.5"/>
<feColorMatrix type="matrix" values="0 0 0 0 0 0 0 0 0 0 0 0 0 0 0 0 0 0 0.3 0"/>
<feBlend mode="normal" in2="BackgroundImageFix" result="effect1_dropShadow_420_3426"/>
<feColorMatrix in="SourceAlpha" type="matrix" values="0 0 0 0 0 0 0 0 0 0 0 0 0 0 0 0 0 0 127 0" result="hardAlpha"/>
<feMorphology radius="3" operator="dilate" in="SourceAlpha" result="effect2_dropShadow_420_3426"/>
<feOffset dy="4"/>
<feGaussianBlur stdDeviation="4"/>
<feColorMatrix type="matrix" values="0 0 0 0 0 0 0 0 0 0 0 0 0 0 0 0 0 0 0.15 0"/>
<feBlend mode="normal" in2="effect1_dropShadow_420_3426" result="effect2_dropShadow_420_3426"/>
<feBlend mode="normal" in="SourceGraphic" in2="effect2_dropShadow_420_3426" result="shape"/>
</filter>
</defs>
</svg>
