<svg width="82" height="83" viewBox="0 0 82 83" fill="none" xmlns="http://www.w3.org/2000/svg">
<g filter="url(#filter0_dd_420_3418)">
<rect x="11" y="7.27686" width="60" height="60" rx="12" fill="#3A3A3E"/>
<path d="M30.9993 52.2766C30.0591 52.2766 29.2685 51.9561 28.6277 51.315C27.9866 50.6741 27.666 49.8886 27.666 48.9583V45.61H32.666V22.9175L34.7814 24.3921L36.961 22.9175L39.1402 24.3921L41.3198 22.9175L43.4993 24.3921L45.6789 22.9175L47.8585 24.3921L50.0377 22.9175L52.2173 24.3921L54.3327 22.9175V48.9433C54.3327 49.8836 54.0121 50.6741 53.371 51.315C52.7302 51.9561 51.9396 52.2766 50.9993 52.2766H30.9993ZM50.9993 50.61C51.4716 50.61 51.8674 50.4503 52.1868 50.1308C52.5063 49.8114 52.666 49.4155 52.666 48.9433V25.61H34.3327V45.61H49.3327V48.9433C49.3327 49.4155 49.4924 49.8114 49.8118 50.1308C50.1313 50.4503 50.5271 50.61 50.9993 50.61ZM36.6402 31.4433V29.7766H45.5506V31.4433H36.6402ZM36.6402 36.4433V34.7766H45.5506V36.4433H36.6402ZM49.1402 31.8921C48.7963 31.8921 48.4967 31.7644 48.2414 31.5091C47.9862 31.2536 47.8585 30.9539 47.8585 30.61C47.8585 30.2661 47.9862 29.9664 48.2414 29.7108C48.4967 29.4555 48.7963 29.3279 49.1402 29.3279C49.4843 29.3279 49.7841 29.4555 50.0393 29.7108C50.2946 29.9664 50.4223 30.2661 50.4223 30.61C50.4223 30.9539 50.2946 31.2536 50.0393 31.5091C49.7841 31.7644 49.4843 31.8921 49.1402 31.8921ZM49.1402 36.8921C48.7963 36.8921 48.4967 36.7644 48.2414 36.5091C47.9862 36.2536 47.8585 35.9539 47.8585 35.61C47.8585 35.2661 47.9862 34.9664 48.2414 34.7108C48.4967 34.4555 48.7963 34.3279 49.1402 34.3279C49.4843 34.3279 49.7841 34.4555 50.0393 34.7108C50.2946 34.9664 50.4223 35.2661 50.4223 35.61C50.4223 35.9539 50.2946 36.2536 50.0393 36.5091C49.7841 36.7644 49.4843 36.8921 49.1402 36.8921ZM30.9993 50.61H47.666V47.2766H29.3327V48.9433C29.3327 49.4155 29.4924 49.8114 29.8118 50.1308C30.1313 50.4503 30.5271 50.61 30.9993 50.61Z" fill="#E3E3F1"/>
</g>
<defs>
<filter id="filter0_dd_420_3418" x="0" y="0.276855" width="82" height="82" filterUnits="userSpaceOnUse" color-interpolation-filters="sRGB">
<feFlood flood-opacity="0" result="BackgroundImageFix"/>
<feColorMatrix in="SourceAlpha" type="matrix" values="0 0 0 0 0 0 0 0 0 0 0 0 0 0 0 0 0 0 127 0" result="hardAlpha"/>
<feOffset dy="1"/>
<feGaussianBlur stdDeviation="1.5"/>
<feColorMatrix type="matrix" values="0 0 0 0 0 0 0 0 0 0 0 0 0 0 0 0 0 0 0.3 0"/>
<feBlend mode="normal" in2="BackgroundImageFix" result="effect1_dropShadow_420_3418"/>
<feColorMatrix in="SourceAlpha" type="matrix" values="0 0 0 0 0 0 0 0 0 0 0 0 0 0 0 0 0 0 127 0" result="hardAlpha"/>
<feMorphology radius="3" operator="dilate" in="SourceAlpha" result="effect2_dropShadow_420_3418"/>
<feOffset dy="4"/>
<feGaussianBlur stdDeviation="4"/>
<feColorMatrix type="matrix" values="0 0 0 0 0 0 0 0 0 0 0 0 0 0 0 0 0 0 0.15 0"/>
<feBlend mode="normal" in2="effect1_dropShadow_420_3418" result="effect2_dropShadow_420_3418"/>
<feBlend mode="normal" in="SourceGraphic" in2="effect2_dropShadow_420_3418" result="shape"/>
</filter>
</defs>
</svg>
