<svg width="82" height="83" viewBox="0 0 82 83" fill="none" xmlns="http://www.w3.org/2000/svg">
<g filter="url(#filter0_dd_420_3410)">
<rect x="11" y="7.27686" width="60" height="60" rx="12" fill="#3A3A3E"/>
<path d="M34.5273 44.8409C34.8912 44.8409 35.1955 44.7178 35.4402 44.4717C35.6846 44.2256 35.8068 43.9206 35.8068 43.5567C35.8068 43.1928 35.6838 42.8885 35.4377 42.6438C35.1916 42.3991 34.8866 42.2767 34.5227 42.2767C34.1588 42.2767 33.8545 42.3997 33.6098 42.6459C33.3653 42.892 33.2431 43.197 33.2431 43.5609C33.2431 43.9247 33.3662 44.2291 33.6123 44.4738C33.8584 44.7185 34.1634 44.8409 34.5273 44.8409ZM34.5273 38.5588C34.8912 38.5588 35.1955 38.4357 35.4402 38.1896C35.6846 37.9435 35.8068 37.6385 35.8068 37.2746C35.8068 36.9107 35.6838 36.6064 35.4377 36.3617C35.1916 36.117 34.8866 35.9946 34.5227 35.9946C34.1588 35.9946 33.8545 36.1177 33.6098 36.3638C33.3653 36.6099 33.2431 36.9149 33.2431 37.2788C33.2431 37.6427 33.3662 37.947 33.6123 38.1917C33.8584 38.4364 34.1634 38.5588 34.5273 38.5588ZM34.5273 32.2767C34.8912 32.2767 35.1955 32.1536 35.4402 31.9075C35.6846 31.6614 35.8068 31.3564 35.8068 30.9925C35.8068 30.6286 35.6838 30.3243 35.4377 30.0796C35.1916 29.8349 34.8866 29.7125 34.5227 29.7125C34.1588 29.7125 33.8545 29.8356 33.6098 30.0817C33.3653 30.3278 33.2431 30.6328 33.2431 30.9967C33.2431 31.3606 33.3662 31.6649 33.6123 31.9096C33.8584 32.1543 34.1634 32.2767 34.5273 32.2767ZM39.6531 44.3921H48.6277V42.7254H39.6531V44.3921ZM39.6531 38.11H48.6277V36.4434H39.6531V38.11ZM39.6531 31.8279H48.6277V30.1613H39.6531V31.8279ZM30.3585 50.61C29.5913 50.61 28.9507 50.3531 28.4368 49.8392C27.923 49.3253 27.666 48.6847 27.666 47.9175V26.6359C27.666 25.8686 27.923 25.2281 28.4368 24.7142C28.9507 24.2003 29.5913 23.9434 30.3585 23.9434H51.6402C52.4074 23.9434 53.048 24.2003 53.5618 24.7142C54.0757 25.2281 54.3327 25.8686 54.3327 26.6359V47.9175C54.3327 48.6847 54.0757 49.3253 53.5618 49.8392C53.048 50.3531 52.4074 50.61 51.6402 50.61H30.3585ZM30.3585 48.9434H51.6402C51.8968 48.9434 52.132 48.8366 52.3456 48.6229C52.5592 48.4093 52.666 48.1742 52.666 47.9175V26.6359C52.666 26.3792 52.5592 26.1441 52.3456 25.9304C52.132 25.7168 51.8968 25.61 51.6402 25.61H30.3585C30.1018 25.61 29.8667 25.7168 29.6531 25.9304C29.4395 26.1441 29.3327 26.3792 29.3327 26.6359V47.9175C29.3327 48.1742 29.4395 48.4093 29.6531 48.6229C29.8667 48.8366 30.1018 48.9434 30.3585 48.9434Z" fill="#E3E3F1"/>
</g>
<defs>
<filter id="filter0_dd_420_3410" x="0" y="0.276855" width="82" height="82" filterUnits="userSpaceOnUse" color-interpolation-filters="sRGB">
<feFlood flood-opacity="0" result="BackgroundImageFix"/>
<feColorMatrix in="SourceAlpha" type="matrix" values="0 0 0 0 0 0 0 0 0 0 0 0 0 0 0 0 0 0 127 0" result="hardAlpha"/>
<feOffset dy="1"/>
<feGaussianBlur stdDeviation="1.5"/>
<feColorMatrix type="matrix" values="0 0 0 0 0 0 0 0 0 0 0 0 0 0 0 0 0 0 0.3 0"/>
<feBlend mode="normal" in2="BackgroundImageFix" result="effect1_dropShadow_420_3410"/>
<feColorMatrix in="SourceAlpha" type="matrix" values="0 0 0 0 0 0 0 0 0 0 0 0 0 0 0 0 0 0 127 0" result="hardAlpha"/>
<feMorphology radius="3" operator="dilate" in="SourceAlpha" result="effect2_dropShadow_420_3410"/>
<feOffset dy="4"/>
<feGaussianBlur stdDeviation="4"/>
<feColorMatrix type="matrix" values="0 0 0 0 0 0 0 0 0 0 0 0 0 0 0 0 0 0 0.15 0"/>
<feBlend mode="normal" in2="effect1_dropShadow_420_3410" result="effect2_dropShadow_420_3410"/>
<feBlend mode="normal" in="SourceGraphic" in2="effect2_dropShadow_420_3410" result="shape"/>
</filter>
</defs>
</svg>
