<svg width="82" height="83" viewBox="0 0 82 83" fill="none" xmlns="http://www.w3.org/2000/svg">
<g filter="url(#filter0_dd_420_3403)">
<rect x="11" y="7.27686" width="60" height="60" rx="30" fill="#E3E3F1"/>
<rect x="12.5" y="8.77686" width="57" height="57" rx="28.5" stroke="#B5B5CF" stroke-width="3"/>
<path fill-rule="evenodd" clip-rule="evenodd" d="M50.0013 31.2769C50.0013 36.2474 45.9719 40.2769 41.0013 40.2769C36.0308 40.2769 32.0013 36.2474 32.0013 31.2769C32.0013 26.3063 36.0308 22.2769 41.0013 22.2769C45.9719 22.2769 50.0013 26.3063 50.0013 31.2769ZM47.0013 31.2769C47.0013 34.5906 44.3151 37.2769 41.0013 37.2769C37.6876 37.2769 35.0013 34.5906 35.0013 31.2769C35.0013 27.9631 37.6876 25.2769 41.0013 25.2769C44.3151 25.2769 47.0013 27.9631 47.0013 31.2769Z" fill="#B5B5CF"/>
<path d="M41.0013 44.7769C31.2898 44.7769 23.0153 50.5195 19.8633 58.5649C20.6311 59.3274 21.44 60.0486 22.2863 60.7249C24.6334 53.3384 31.9964 47.7769 41.0013 47.7769C50.0063 47.7769 57.3693 53.3384 59.7164 60.725C60.5627 60.0486 61.3716 59.3274 62.1394 58.5649C58.9875 50.5195 50.7129 44.7769 41.0013 44.7769Z" fill="#B5B5CF"/>
</g>
<defs>
<filter id="filter0_dd_420_3403" x="0" y="0.276855" width="82" height="82" filterUnits="userSpaceOnUse" color-interpolation-filters="sRGB">
<feFlood flood-opacity="0" result="BackgroundImageFix"/>
<feColorMatrix in="SourceAlpha" type="matrix" values="0 0 0 0 0 0 0 0 0 0 0 0 0 0 0 0 0 0 127 0" result="hardAlpha"/>
<feOffset dy="1"/>
<feGaussianBlur stdDeviation="1.5"/>
<feComposite in2="hardAlpha" operator="out"/>
<feColorMatrix type="matrix" values="0 0 0 0 0 0 0 0 0 0 0 0 0 0 0 0 0 0 0.3 0"/>
<feBlend mode="normal" in2="BackgroundImageFix" result="effect1_dropShadow_420_3403"/>
<feColorMatrix in="SourceAlpha" type="matrix" values="0 0 0 0 0 0 0 0 0 0 0 0 0 0 0 0 0 0 127 0" result="hardAlpha"/>
<feMorphology radius="3" operator="dilate" in="SourceAlpha" result="effect2_dropShadow_420_3403"/>
<feOffset dy="4"/>
<feGaussianBlur stdDeviation="4"/>
<feComposite in2="hardAlpha" operator="out"/>
<feColorMatrix type="matrix" values="0 0 0 0 0 0 0 0 0 0 0 0 0 0 0 0 0 0 0.15 0"/>
<feBlend mode="normal" in2="effect1_dropShadow_420_3403" result="effect2_dropShadow_420_3403"/>
<feBlend mode="normal" in="SourceGraphic" in2="effect2_dropShadow_420_3403" result="shape"/>
</filter>
</defs>
</svg>
