<svg width="82" height="82" viewBox="0 0 82 82" fill="none" xmlns="http://www.w3.org/2000/svg">
<g filter="url(#filter0_dd_459_453)">
<rect x="11" y="7" width="60" height="60" rx="12" fill="#3A3A3E"/>
<path d="M37.8909 52L37.2884 47.1796C36.7565 47.0193 36.1812 46.7671 35.5626 46.4229C34.944 46.079 34.4179 45.7106 33.9843 45.3175L29.5384 47.2083L26.4297 41.7917L30.2726 38.8942C30.2234 38.5931 30.1829 38.2828 30.1509 37.9633C30.1187 37.6439 30.1026 37.3335 30.1026 37.0321C30.1026 36.7521 30.1187 36.4578 30.1509 36.1492C30.1829 35.8403 30.2234 35.4925 30.2726 35.1058L26.4297 32.2083L29.5384 26.8558L33.9522 28.7146C34.45 28.3001 34.9884 27.9262 35.5676 27.5929C36.1465 27.2596 36.7094 27.0021 37.2564 26.8204L37.8909 22H44.1093L44.7118 26.8525C45.3507 27.0769 45.9152 27.3344 46.4055 27.625C46.8958 27.9156 47.4007 28.2788 47.9201 28.7146L52.4618 26.8558L55.5705 32.2083L51.5993 35.2021C51.6912 35.546 51.7426 35.8617 51.7534 36.1492C51.764 36.4364 51.7693 36.72 51.7693 37C51.7693 37.2586 51.7586 37.5315 51.7372 37.8188C51.7158 38.1063 51.6666 38.454 51.5897 38.8621L55.4968 41.7917L52.388 47.2083L47.9201 45.2854C47.4007 45.7213 46.8782 46.0951 46.3526 46.4071C45.827 46.719 45.2801 46.9658 44.7118 47.1475L44.1093 52H37.8909ZM39.3334 50.3333H42.593L43.2084 45.8204C44.0482 45.5982 44.804 45.2932 45.4759 44.9054C46.1482 44.5176 46.8325 43.9861 47.5289 43.3108L51.6859 45.0833L53.343 42.25L49.6955 39.5096C49.8344 39.0351 49.9264 38.5988 49.9714 38.2004C50.0161 37.8018 50.0384 37.4017 50.0384 37C50.0384 36.5769 50.0161 36.1768 49.9714 35.7996C49.9264 35.4226 49.8344 35.0076 49.6955 34.5546L53.4072 31.75L51.7501 28.9167L47.4968 30.6988C46.9926 30.1454 46.3297 29.6267 45.508 29.1425C44.6866 28.6586 43.9094 28.3376 43.1764 28.1796L42.6668 23.6667H39.343L38.8239 28.1475C37.9841 28.3269 37.2122 28.616 36.508 29.0146C35.8041 29.4129 35.1039 29.9604 34.4072 30.6571L30.2501 28.9167L28.593 31.75L32.2084 34.4488C32.0695 34.8226 31.9723 35.2286 31.9168 35.6667C31.8612 36.1047 31.8334 36.5599 31.8334 37.0321C31.8334 37.4551 31.8612 37.875 31.9168 38.2917C31.9723 38.7083 32.0589 39.1143 32.1764 39.5096L28.593 42.25L30.2501 45.0833L34.3751 43.3333C35.029 43.9936 35.7079 44.5231 36.4118 44.9217C37.1159 45.32 37.9093 45.6303 38.7918 45.8525L39.3334 50.3333ZM40.9551 41.1667C42.1176 41.1667 43.1027 40.7628 43.9105 39.955C44.718 39.1475 45.1218 38.1625 45.1218 37C45.1218 35.8375 44.718 34.8525 43.9105 34.045C43.1027 33.2372 42.1176 32.8333 40.9551 32.8333C39.7865 32.8333 38.7998 33.2372 37.9951 34.045C37.1907 34.8525 36.7884 35.8375 36.7884 37C36.7884 38.1625 37.1907 39.1475 37.9951 39.955C38.7998 40.7628 39.7865 41.1667 40.9551 41.1667Z" fill="#E3E3F1"/>
</g>
<defs>
<filter id="filter0_dd_459_453" x="0" y="0" width="82" height="82" filterUnits="userSpaceOnUse" color-interpolation-filters="sRGB">
<feFlood flood-opacity="0" result="BackgroundImageFix"/>
<feColorMatrix in="SourceAlpha" type="matrix" values="0 0 0 0 0 0 0 0 0 0 0 0 0 0 0 0 0 0 127 0" result="hardAlpha"/>
<feOffset dy="1"/>
<feGaussianBlur stdDeviation="1.5"/>
<feColorMatrix type="matrix" values="0 0 0 0 0 0 0 0 0 0 0 0 0 0 0 0 0 0 0.3 0"/>
<feBlend mode="normal" in2="BackgroundImageFix" result="effect1_dropShadow_459_453"/>
<feColorMatrix in="SourceAlpha" type="matrix" values="0 0 0 0 0 0 0 0 0 0 0 0 0 0 0 0 0 0 127 0" result="hardAlpha"/>
<feMorphology radius="3" operator="dilate" in="SourceAlpha" result="effect2_dropShadow_459_453"/>
<feOffset dy="4"/>
<feGaussianBlur stdDeviation="4"/>
<feColorMatrix type="matrix" values="0 0 0 0 0 0 0 0 0 0 0 0 0 0 0 0 0 0 0.15 0"/>
<feBlend mode="normal" in2="effect1_dropShadow_459_453" result="effect2_dropShadow_459_453"/>
<feBlend mode="normal" in="SourceGraphic" in2="effect2_dropShadow_459_453" result="shape"/>
</filter>
</defs>
</svg>
