<svg width="400" height="380" viewBox="0 0 400 380" fill="none" xmlns="http://www.w3.org/2000/svg">
<path d="M375.113 165.552C386.501 163.438 393.964 152.231 390.035 141.335C378.313 108.829 356.694 79.8404 327.477 57.8541C292.287 31.3733 248.196 16.6459 202.531 16.1201C156.867 15.5943 112.379 29.3016 76.4645 54.9637C46.6571 76.2618 24.2444 104.73 11.619 136.94C7.38394 147.744 14.5763 159.166 25.934 161.548C36.6449 163.794 47.0788 157.11 51.2714 147.001C61.467 122.418 78.8881 100.703 101.812 84.3234C130.358 63.9268 165.717 53.032 202.012 53.4499C238.307 53.8678 273.352 65.5734 301.321 86.6208C323.744 103.495 340.536 125.558 350.053 150.317C353.997 160.575 364.308 167.557 375.113 165.552Z" fill="#3A3A3E"/>
<path d="M294.085 205.376C307.064 202.722 315.653 189.904 310.498 177.702C303.033 160.035 291.412 144.302 276.486 131.925C255.372 114.417 228.918 104.68 201.519 104.332C174.12 103.984 147.428 113.047 125.879 130.014C110.645 142.008 98.6303 157.442 90.7219 174.914C85.2598 186.982 93.522 200.012 106.428 202.994C119.354 205.981 131.953 197.553 138.983 186.302C143.363 179.292 148.944 173.039 155.527 167.855C168.457 157.675 184.472 152.238 200.911 152.446C217.351 152.655 233.223 158.497 245.892 169.002C252.343 174.352 257.765 180.746 261.967 187.866C268.709 199.29 281.089 208.034 294.085 205.376Z" fill="#3A3A3E"/>
<ellipse cx="200" cy="242.662" rx="50" ry="50.1232" fill="#3A3A3E"/>
<rect width="40.0493" height="400.493" rx="20" transform="matrix(0.706236 0.707976 -0.706236 0.707976 339.619 0)" fill="#3A3A3E"/>
</svg>
