<svg width="32" height="24" viewBox="0 0 32 24" fill="none" xmlns="http://www.w3.org/2000/svg">
<path d="M0.327148 23.0258V20.282C0.327148 19.5084 0.527426 18.8433 0.927982 18.2866C1.32854 17.7302 1.86687 17.2855 2.54298 16.9525C3.98881 16.2641 5.42423 15.7154 6.84923 15.3062C8.27451 14.897 9.98937 14.6925 11.9938 14.6925C13.998 14.6925 15.7127 14.897 17.138 15.3062C18.5633 15.7154 19.9987 16.2641 21.4442 16.9525C22.1203 17.2855 22.6587 17.7302 23.0592 18.2866C23.4601 18.8433 23.6605 19.5084 23.6605 20.282V23.0258H0.327148ZM26.9938 23.0258V20.205C26.9938 19.2391 26.7983 18.3275 26.4071 17.47C26.0163 16.6125 25.4619 15.8768 24.7438 15.2629C25.5621 15.4295 26.3506 15.6608 27.1092 15.9566C27.8676 16.2527 28.6176 16.5855 29.3592 16.955C30.0815 17.3183 30.6477 17.7831 31.058 18.3495C31.468 18.9162 31.673 19.5347 31.673 20.205V23.0258H26.9938ZM11.9938 10.9741C10.6188 10.9741 9.44173 10.4845 8.46256 9.50537C7.4834 8.5262 6.99381 7.34912 6.99381 5.97412C6.99381 4.59912 7.4834 3.42204 8.46256 2.44287C9.44173 1.4637 10.6188 0.974121 11.9938 0.974121C13.3688 0.974121 14.5459 1.4637 15.5251 2.44287C16.5042 3.42204 16.9938 4.59912 16.9938 5.97412C16.9938 7.34912 16.5042 8.5262 15.5251 9.50537C14.5459 10.4845 13.3688 10.9741 11.9938 10.9741ZM24.1092 5.97412C24.1092 7.34912 23.6196 8.5262 22.6405 9.50537C21.6613 10.4845 20.4842 10.9741 19.1092 10.9741C19.0387 10.9741 18.9488 10.9662 18.8396 10.9504C18.7308 10.9343 18.641 10.9166 18.5705 10.8975C19.1352 10.2058 19.5691 9.43857 19.8721 8.59579C20.1755 7.75301 20.3271 6.87787 20.3271 5.97037C20.3271 5.06287 20.1684 4.19565 19.8509 3.3687C19.5337 2.54176 19.1069 1.76926 18.5705 1.0512C18.6602 1.01926 18.7499 0.998426 18.8396 0.988703C18.9294 0.978981 19.0192 0.974121 19.1092 0.974121C20.4842 0.974121 21.6613 1.4637 22.6405 2.44287C23.6196 3.42204 24.1092 4.59912 24.1092 5.97412ZM1.99382 21.3591H21.9938V20.282C21.9938 19.8909 21.896 19.549 21.7005 19.2562C21.5049 18.9637 21.154 18.6838 20.6476 18.4166C19.404 17.7522 18.093 17.2431 16.7146 16.8895C15.3366 16.5359 13.763 16.3591 11.9938 16.3591C10.2244 16.3591 8.65062 16.5359 7.27256 16.8895C5.89423 17.2431 4.58326 17.7522 3.33965 18.4166C2.83326 18.6838 2.48229 18.9637 2.28673 19.2562C2.09145 19.549 1.99382 19.8909 1.99382 20.282V21.3591ZM11.9938 9.30746C12.9105 9.30746 13.6952 8.98107 14.348 8.32829C15.0008 7.67551 15.3271 6.89079 15.3271 5.97412C15.3271 5.05745 15.0008 4.27273 14.348 3.61995C13.6952 2.96718 12.9105 2.64079 11.9938 2.64079C11.0771 2.64079 10.2924 2.96718 9.63965 3.61995C8.98687 4.27273 8.66048 5.05745 8.66048 5.97412C8.66048 6.89079 8.98687 7.67551 9.63965 8.32829C10.2924 8.98107 11.0771 9.30746 11.9938 9.30746Z" fill="#3A3A3E"/>
</svg>
