<svg width="27" height="28" viewBox="0 0 27 28" fill="none" xmlns="http://www.w3.org/2000/svg">
<path d="M7.02824 21.564C7.39213 21.564 7.69644 21.4409 7.94116 21.1948C8.1856 20.9487 8.30783 20.6437 8.30783 20.2798C8.30783 19.9159 8.18477 19.6116 7.93866 19.3669C7.69255 19.1222 7.38755 18.9998 7.02366 18.9998C6.65977 18.9998 6.35546 19.1229 6.11074 19.369C5.8663 19.6151 5.74408 19.9201 5.74408 20.284C5.74408 20.6479 5.86713 20.9522 6.11324 21.1969C6.35935 21.4416 6.66435 21.564 7.02824 21.564ZM7.02824 15.2819C7.39213 15.2819 7.69644 15.1589 7.94116 14.9128C8.1856 14.6666 8.30783 14.3616 8.30783 13.9978C8.30783 13.6339 8.18477 13.3296 7.93866 13.0848C7.69255 12.8401 7.38755 12.7178 7.02366 12.7178C6.65977 12.7178 6.35546 12.8408 6.11074 13.0869C5.8663 13.333 5.74408 13.638 5.74408 14.0019C5.74408 14.3658 5.86713 14.6701 6.11324 14.9148C6.35935 15.1596 6.66435 15.2819 7.02824 15.2819ZM7.02824 8.99984C7.39213 8.99984 7.69644 8.87678 7.94116 8.63067C8.1856 8.38456 8.30783 8.07956 8.30783 7.71567C8.30783 7.35178 8.18477 7.04748 7.93866 6.80275C7.69255 6.55803 7.38755 6.43567 7.02366 6.43567C6.65977 6.43567 6.35546 6.55873 6.11074 6.80484C5.8663 7.05095 5.74408 7.35595 5.74408 7.71984C5.74408 8.08373 5.86713 8.38803 6.11324 8.63275C6.35935 8.87748 6.66435 8.99984 7.02824 8.99984ZM12.1541 21.1153H21.1287V19.4486H12.1541V21.1153ZM12.1541 14.8332H21.1287V13.1665H12.1541V14.8332ZM12.1541 8.55109H21.1287V6.88442H12.1541V8.55109ZM2.85949 27.3332C2.09227 27.3332 1.45171 27.0762 0.937826 26.5623C0.423937 26.0484 0.166992 25.4079 0.166992 24.6407V3.359C0.166992 2.59178 0.423937 1.95123 0.937826 1.43734C1.45171 0.923448 2.09227 0.666504 2.85949 0.666504H24.1412C24.9084 0.666504 25.5489 0.923448 26.0628 1.43734C26.5767 1.95123 26.8337 2.59178 26.8337 3.359V24.6407C26.8337 25.4079 26.5767 26.0484 26.0628 26.5623C25.5489 27.0762 24.9084 27.3332 24.1412 27.3332H2.85949ZM2.85949 25.6665H24.1412C24.3978 25.6665 24.633 25.5597 24.8466 25.3461C25.0602 25.1325 25.167 24.8973 25.167 24.6407V3.359C25.167 3.10234 25.0602 2.8672 24.8466 2.65359C24.633 2.43998 24.3978 2.33317 24.1412 2.33317H2.85949C2.60283 2.33317 2.36769 2.43998 2.15408 2.65359C1.94046 2.8672 1.83366 3.10234 1.83366 3.359V24.6407C1.83366 24.8973 1.94046 25.1325 2.15408 25.3461C2.36769 25.5597 2.60283 25.6665 2.85949 25.6665Z" fill="#3A3A3E"/>
</svg>
