<svg width="27" height="30" viewBox="0 0 27 30" fill="none" xmlns="http://www.w3.org/2000/svg">
<path d="M3.50033 29.9998C2.56005 29.9998 1.76949 29.6792 1.12866 29.0381C0.487548 28.3973 0.166992 27.6117 0.166992 26.6815V23.3331H5.16699V0.640625L7.28241 2.11521L9.46199 0.640625L11.6412 2.11521L13.8207 0.640625L16.0003 2.11521L18.1799 0.640625L20.3595 2.11521L22.5387 0.640625L24.7182 2.11521L26.8337 0.640625V26.6665C26.8337 27.6067 26.5131 28.3973 25.872 29.0381C25.2312 29.6792 24.4406 29.9998 23.5003 29.9998H3.50033ZM23.5003 28.3331C23.9725 28.3331 24.3684 28.1734 24.6878 27.854C25.0073 27.5345 25.167 27.1387 25.167 26.6665V3.33312H6.83366V23.3331H21.8337V26.6665C21.8337 27.1387 21.9934 27.5345 22.3128 27.854C22.6323 28.1734 23.0281 28.3331 23.5003 28.3331ZM9.14116 9.16646V7.49979H18.0516V9.16646H9.14116ZM9.14116 14.1665V12.4998H18.0516V14.1665H9.14116ZM21.6412 9.61521C21.2973 9.61521 20.9977 9.48757 20.7424 9.23229C20.4871 8.97674 20.3595 8.67701 20.3595 8.33312C20.3595 7.98924 20.4871 7.68951 20.7424 7.43396C20.9977 7.17868 21.2973 7.05104 21.6412 7.05104C21.9853 7.05104 22.285 7.17868 22.5403 7.43396C22.7956 7.68951 22.9232 7.98924 22.9232 8.33312C22.9232 8.67701 22.7956 8.97674 22.5403 9.23229C22.285 9.48757 21.9853 9.61521 21.6412 9.61521ZM21.6412 14.6152C21.2973 14.6152 20.9977 14.4876 20.7424 14.2323C20.4871 13.9767 20.3595 13.677 20.3595 13.3331C20.3595 12.9892 20.4871 12.6895 20.7424 12.434C20.9977 12.1787 21.2973 12.051 21.6412 12.051C21.9853 12.051 22.285 12.1787 22.5403 12.434C22.7956 12.6895 22.9232 12.9892 22.9232 13.3331C22.9232 13.677 22.7956 13.9767 22.5403 14.2323C22.285 14.4876 21.9853 14.6152 21.6412 14.6152ZM3.50033 28.3331H20.167V24.9998H1.83366V26.6665C1.83366 27.1387 1.99338 27.5345 2.31283 27.854C2.63227 28.1734 3.0281 28.3331 3.50033 28.3331Z" fill="#3A3A3E"/>
</svg>
